<?xml version="1.0" encoding="utf-8"?>
<!-- Generator: Adobe Illustrator 18.0.0, SVG Export Plug-In . SVG Version: 6.00 Build 0)  -->
<!DOCTYPE svg PUBLIC "-//W3C//DTD SVG 1.1//EN" "http://www.w3.org/Graphics/SVG/1.1/DTD/svg11.dtd">
<svg version="1.1" id="Layer_1" xmlns="http://www.w3.org/2000/svg" xmlns:xlink="http://www.w3.org/1999/xlink" x="0px" y="0px"
	 viewBox="0 0 16 16" enable-background="new 0 0 16 16" xml:space="preserve">
<g>
	<path fill="#59595C" d="M6.6,8L6.6,8C6.2,7.7,6.1,7.3,6.3,6.9l2.7-5.2c0.2-0.5,0.8-0.6,1.3-0.3l0,0c0.4,0.2,0.5,0.7,0.3,1.1
		L7.9,7.6C7.7,8.1,7.1,8.2,6.6,8z"/>
	<path fill="#59595C" d="M10.9,10.5L10.9,10.5c-0.4-0.2-0.5-0.7-0.3-1.1l2.7-5.2c0.2-0.5,0.8-0.6,1.3-0.3l0,0
		c0.4,0.2,0.5,0.7,0.3,1.1l-2.7,5.2C12,10.6,11.4,10.7,10.9,10.5z"/>
	<path fill="#59595C" d="M11.3,13.6L3.8,9.3C3.4,9,3.2,8.5,3.4,8.1l2.2-4.3C5.9,3.3,6.5,3.1,7,3.4l7.5,4.3c0.4,0.2,0.6,0.7,0.4,1.1
		l-2.2,4.3C12.4,13.7,11.7,13.9,11.3,13.6z"/>
	<path fill="none" stroke="#59595C" stroke-width="1.6908" stroke-miterlimit="10" d="M8.2,8.7c0,0-0.2,3.6-2,4.7
		C4.5,14.5,2.6,12,1,12.1"/>
</g>
</svg>
