<?xml version="1.0" encoding="utf-8"?>
<!-- Generator: Adobe Illustrator 18.0.0, SVG Export Plug-In . SVG Version: 6.00 Build 0)  -->
<!DOCTYPE svg PUBLIC "-//W3C//DTD SVG 1.1//EN" "http://www.w3.org/Graphics/SVG/1.1/DTD/svg11.dtd">
<svg version="1.1" id="Layer_1" xmlns="http://www.w3.org/2000/svg" xmlns:xlink="http://www.w3.org/1999/xlink" x="0px" y="0px"
	 viewBox="0 0 16 16" enable-background="new 0 0 16 16" xml:space="preserve">
<path d="M103.3-5L97.4,5.7l1,2.4C98.5,8.2,102.3,1.9,103.3-5z"/>
<path d="M94.3-5l4.3,7.8l-0.8,1.3C97.7,4.2,95.3,1.9,94.3-5z"/>
<path d="M98.8,4.5c-1.3-0.2-3.8,0.6-5.4,2.3c-1.6,1.7-1.5,2.9-0.6,3.8s3.7,0.6,5-1.4C99.2,7.1,100,4.6,98.8,4.5z M96.7,9.1
	c-0.8,1.2-2.4,1.4-3,0.8C93.1,9.3,93,8.6,94,7.6c1-1,2.5-1.5,3.3-1.4C98,6.3,97.5,7.8,96.7,9.1z"/>
<path d="M100.1,9.2c1.3,2,4,2.3,5,1.4s1.1-2.2-0.6-3.8c-1.6-1.7-4.1-2.4-5.4-2.3C98,4.6,98.7,7.1,100.1,9.2z M100.7,6.2
	c0.8-0.1,2.3,0.4,3.3,1.4c1,1,0.9,1.8,0.3,2.3c-0.6,0.6-2.2,0.4-3-0.8C100.5,7.8,100,6.3,100.7,6.2z"/>
<g>
	<path fill="#58595B" d="M10.3,1.1v12.3H2.1V1.1H10.3 M11.4,0H1v14.5h10.4V0L11.4,0z"/>
</g>
<polygon fill="#58595B" points="1,0 6.4,2 6.4,16 1,14.5 "/>
<rect x="8.7" y="6.2" fill="#58595B" width="4.3" height="2.9"/>
<polygon fill="#58595B" points="12.4,5.1 12.4,7.6 12.4,10.2 15.6,7.6 "/>
</svg>
