<?xml version="1.0" encoding="utf-8"?>
<!-- Generator: Adobe Illustrator 18.0.0, SVG Export Plug-In . SVG Version: 6.00 Build 0)  -->
<!DOCTYPE svg PUBLIC "-//W3C//DTD SVG 1.1//EN" "http://www.w3.org/Graphics/SVG/1.1/DTD/svg11.dtd">
<svg version="1.1" id="Layer_1" xmlns="http://www.w3.org/2000/svg" xmlns:xlink="http://www.w3.org/1999/xlink" x="0px" y="0px"
	 viewBox="0 0 16 16" enable-background="new 0 0 16 16" xml:space="preserve">
<g>
	<path fill="#59595C" d="M-45.4-2l-3.2,3.6c-0.3,0.3-0.2,0.8,0.1,1l5.7,5.1c0.3,0.3,0.8,0.2,1-0.1l3.1-3.5L-45.4-2z"/>
	<path fill="#59595C" d="M-33.6-2.6l-5.7-5.1C-39.6-8-40-8-40.3-7.7l-3.1,3.5l6.7,6.3l3.2-3.6C-33.2-1.9-33.3-2.3-33.6-2.6z"/>
</g>
<path fill="#59595C" d="M-42.1,3.7L-42.1,3.7c-0.2-0.2-0.2-0.5,0-0.7l2-2.1c0.2-0.2,0.5-0.2,0.7,0v0c0.2,0.2,0.2,0.5,0,0.7l-2,2.1
	C-41.6,3.9-41.9,3.9-42.1,3.7z"/>
<path fill="#59595C" d="M-44.5,1.4L-44.5,1.4c-0.2-0.2-0.2-0.5,0-0.7l2-2.1c0.2-0.2,0.5-0.2,0.7,0v0c0.2,0.2,0.2,0.5,0,0.7l-2,2.1
	C-44,1.6-44.3,1.6-44.5,1.4z"/>
<g>
	<path fill="#59595C" d="M-23.7-13.8l-0.2-0.1c-0.5-0.3-0.6-0.8-0.4-1.3l3.3-6c0.3-0.5,0.8-0.6,1.3-0.4l0.2,0.1
		c0.5,0.3,0.6,0.8,0.4,1.3l-3.3,6C-22.7-13.7-23.3-13.6-23.7-13.8z"/>
	<path fill="#59595C" d="M-18.5-11l-0.2-0.1c-0.5-0.3-0.6-0.8-0.4-1.3l3.3-6c0.3-0.5,0.8-0.6,1.3-0.4l0.2,0.1
		c0.5,0.3,0.6,0.8,0.4,1.3l-3.3,6C-17.4-10.9-18-10.7-18.5-11z"/>
	<path fill="#59595C" d="M-18-7.3l-9.4-5.1c-0.5-0.3-0.6-0.8-0.4-1.3l2.8-5.1c0.3-0.5,0.8-0.6,1.3-0.4l9.4,5.1
		c0.5,0.3,0.6,0.8,0.4,1.3l-2.8,5.1C-16.9-7.3-17.5-7.1-18-7.3z"/>
	<path fill="none" stroke="#59595C" stroke-width="2" stroke-miterlimit="10" d="M-22-13.1c0,0-0.3,4.1-2.4,5.4
		c-2.1,1.3-6.4-2.4-6.4-1.1"/>
</g>
<g>
	<path fill="#59595C" d="M39.9-1.8H26.7v15.4h15.6V0.5L39.9-1.8z M32.4-0.7H39v4.4h-6.7V-0.7z M40,12.5H29V5.9h11V12.5z"/>
	<rect x="35.6" y="-0.7" fill="#59595C" width="2.2" height="3.4"/>
	<polygon fill="#59595C" points="30.5,9.3 38.4,9.3 34.4,12.5 	"/>
	<polygon fill="#59595C" points="31.5,7.1 37.4,7.1 34.4,10.3 	"/>
</g>
<g>
	<polygon fill="#59595C" points="65,5.6 78.8,5.6 76.7,13.6 62.8,13.6 	"/>
	<polygon fill="#59595C" points="75.8,1.6 76.7,2.6 76.7,4.7 64.4,4.7 62.8,10.9 62.8,1.6 69.7,1.6 69.7,0.6 74.7,0.6 74.7,1.5 	"/>
</g>
<g>
	<polygon fill="#59595C" points="13.9,3.3 13.9,2.8 10.6,0 10.6,3.3 	"/>
	<polygon fill="#59595C" points="10.8,4.4 10.4,4.4 9.4,4.4 9.4,0 2.1,0 2.1,16 13.9,16 13.9,4.4 	"/>
</g>
</svg>
