<?xml version="1.0" encoding="utf-8"?>
<!-- Generator: Adobe Illustrator 18.0.0, SVG Export Plug-In . SVG Version: 6.00 Build 0)  -->
<!DOCTYPE svg PUBLIC "-//W3C//DTD SVG 1.1//EN" "http://www.w3.org/Graphics/SVG/1.1/DTD/svg11.dtd">
<svg version="1.1" id="Layer_1" xmlns="http://www.w3.org/2000/svg" xmlns:xlink="http://www.w3.org/1999/xlink" x="0px" y="0px"
	 viewBox="0 0 16 16" enable-background="new 0 0 16 16" xml:space="preserve">
<g>
	<path fill="#58595B" d="M12.3,0L6.4,10.6l1,2.4C7.5,13.1,11.3,6.8,12.3,0z"/>
	<path fill="#58595B" d="M3.3,0l4.3,7.8L6.7,9.1C6.7,9.1,4.3,6.8,3.3,0z"/>
	<path fill="#58595B" d="M7.9,9.4C6.6,9.3,4.1,10,2.5,11.7c-1.6,1.7-1.5,2.9-0.6,3.8c0.9,0.9,3.7,0.6,5-1.4C8.3,12,9,9.6,7.9,9.4z
		 M5.7,14c-0.8,1.2-2.4,1.4-3,0.8C2.1,14.3,2,13.5,3,12.5c1-1,2.5-1.5,3.3-1.4C7,11.2,6.5,12.7,5.7,14z"/>
	<path fill="#58595B" d="M9.1,14.2c1.3,2,4,2.3,5,1.4c0.9-0.9,1.1-2.2-0.6-3.8C11.9,10,9.4,9.3,8.1,9.4C7,9.6,7.7,12,9.1,14.2z
		 M9.7,11.1c0.8-0.1,2.3,0.4,3.3,1.4c1,1,0.9,1.8,0.3,2.3c-0.6,0.6-2.2,0.4-3-0.8C9.5,12.7,9,11.2,9.7,11.1z"/>
</g>
<g>
	<g>
		<path fill="#58595B" d="M-66-33.4v12.3h-8.1v-12.3H-66 M-64.9-34.5h-10.4V-20h10.4V-34.5L-64.9-34.5z"/>
	</g>
	<polygon fill="#58595B" points="-75.2,-34.5 -69.9,-32.5 -69.9,-18.5 -75.2,-20 	"/>
	<rect x="-67.6" y="-28.3" fill="#58595B" width="4.3" height="2.9"/>
	<polygon fill="#58595B" points="-63.8,-29.4 -63.8,-26.9 -63.8,-24.3 -60.6,-26.9 	"/>
</g>
</svg>
